# xmcd
#
# Track frame offsets: 
#        150
#        19500
#        45900
#        67275
#        88350
#        111150
#        133950
#        158275
#        178975
#        197500
#        214707
#
# Disc length: 3124 seconds
#
# Revision: 0
# Processed by: cddbd v1.5.2PL0 Copyright (c) Steve Scherf et al.
# Submitted via: ExactAudioCopy v0.95b4
#
DISCID=980c320b
DTITLE=Fernando Jose Wayra - Yuraj Anka
DYEAR=2006
DGENRE=Native American
TTITLE0=Antikuna Nauraytaki
TTITLE1=Rumi Nahuy
TTITLE2=Tusuy Kalachaqui
TTITLE3=Yuraj Anka
TTITLE4=Yaq apascha
TTITLE5=Song oruru
TTITLE6=Wayra Ama Wak'aychu
TTITLE7=Mama Killa
TTITLE8=Kiskamannataq
TTITLE9=Cussi Coillor
TTITLE10=Pachakuteq
EXTD=
EXTT0=
EXTT1=
EXTT2=
EXTT3=
EXTT4=
EXTT5=
EXTT6=
EXTT7=
EXTT8=
EXTT9=
EXTT10=
PLAYORDER=
